<svg width="71" height="46" xmlns="http://www.w3.org/2000/svg">

 <metadata id="imagebot_16">image/svg+xml</metadata>
 <g id="imagebot_2" label="Capa 1">
  <rect transform="translate(0 0.167772) matrix(1 0 0 1 -50.5289 -95.9141)" label="Capa 1" fill="none" stroke="#fff" stroke-width="1.08113" id="imagebot_15" width="58.7741" height="39.01168" x="56.81541" y="96.62237" ry="4.08072"/>
  <rect transform="translate(0 0.167772) matrix(1 0 0 1 -50.5289 -95.9141)" label="Capa 1" fill="none" stroke="#fff" stroke-width="1.03118" id="imagebot_14" width="51.5577" height="29.36354" x="60.42358" y="100.6676"/>
  <path fill-opacity="0" label="Capa 1" fill="#fff" stroke="#fff" stroke-width="1.08113" stroke-miterlimit="60.9" d="M 0.631721 40.2549 L 0.631721 41.7247 C 0.631721 43.5129 2.08296 44.9649 3.9121 44.9649 L 67.4009 44.9649 C 69.23 44.9649 70.7154 43.5129 70.7154 41.7247 L 70.7154 40.2549 L 0.631721 40.2549 Z" id="imagebot_13"/>
  <path transform="translate(0 0.167772) matrix(1 0 0 1 -50.5289 -95.9141)" label="Capa 1" fill="#fff" d="M 50.5289 135.785 L 56.1712 132.15 L 115.929 132.15 L 121.828 135.66 L 50.5289 135.785 Z" id="imagebot_12"/>
  <ellipse transform="translate(0 0.167772) matrix(1 0 0 1 -50.5289 -95.9141)" label="Capa 1" fill="#fff" id="imagebot_11" cx="86.17857" cy="98.75633" rx="0.89765" ry="0.87753"/>
  <title>Capa 1</title>
 </g>
</svg>